<?xml version="1.0" encoding="utf-8"?>
<!-- Generator: Adobe Illustrator 26.0.3, SVG Export Plug-In . SVG Version: 6.00 Build 0)  -->
<svg version="1.1" id="Layer_1" xmlns="http://www.w3.org/2000/svg" xmlns:xlink="http://www.w3.org/1999/xlink" x="0px" y="0px"
	 viewBox="0 0 32 32" style="enable-background:new 0 0 32 32;" xml:space="preserve">
<style type="text/css">
	.st0{fill:#020203;}
	.st1{fill:#FFFFFF;}
</style>
<path class="st0" d="M1.6,23.3l0-13.9c0-4.2,3.4-7.6,7.6-7.6h13.9c4.2,0,7.6,3.4,7.6,7.6v13.9c0,4.2-3.4,7.6-7.6,7.6H9.3
	C5.1,31,1.6,27.5,1.6,23.3z"/>
<path class="st1" d="M17.1,19c0,0.4-0.1,0.8-0.3,1.2c-0.2,0.3-0.4,0.6-0.7,0.8c-0.3,0.2-0.7,0.4-1.1,0.5c-0.4,0.1-0.8,0.2-1.3,0.2
	H8.6V11.2h5.6c0.4,0,0.7,0.1,1,0.2c0.3,0.2,0.5,0.4,0.8,0.6c0.2,0.3,0.4,0.5,0.5,0.9c0.1,0.3,0.2,0.6,0.2,1c0,0.5-0.1,1-0.4,1.4
	c-0.3,0.5-0.6,0.8-1.1,1c0.6,0.2,1.1,0.5,1.4,1C16.9,17.7,17.1,18.3,17.1,19z M10.6,12.9v2.7h2.7c0.3,0,0.6-0.1,0.9-0.4
	c0.2-0.2,0.4-0.6,0.4-1c0-0.4-0.1-0.7-0.3-1c-0.2-0.2-0.5-0.4-0.8-0.4H10.6z M15,18.6c0-0.2,0-0.4-0.1-0.5c-0.1-0.2-0.2-0.3-0.3-0.5
	c-0.1-0.1-0.2-0.2-0.4-0.3c-0.1-0.1-0.3-0.1-0.5-0.1h-3.1V20h3c0.2,0,0.4,0,0.5-0.1c0.2-0.1,0.3-0.2,0.4-0.3
	c0.1-0.1,0.2-0.3,0.3-0.4C15,19,15,18.8,15,18.6z"/>
<path class="st1" d="M21.5,21.7c-0.6,0-1.2-0.1-1.6-0.3c-1-0.4-1.7-1.1-2-2.1c-0.2-0.5-0.3-1-0.3-1.5c0-0.5,0.1-1,0.3-1.5
	c0.4-1,1.1-1.7,2-2.1c0.5-0.2,1-0.3,1.7-0.3c0.6,0,1.2,0.1,1.6,0.3c1.6,0.7,2.3,2.2,2.3,3.9c0,0.1,0,0.2,0,0.3h-5.8
	c0,0.3,0.1,0.6,0.2,0.8c0.1,0.2,0.3,0.4,0.4,0.6c0.2,0.2,0.4,0.3,0.6,0.4c0.2,0.1,0.5,0.1,0.7,0.1c0.4,0,0.7-0.1,1.1-0.3
	c0.3-0.2,0.6-0.4,0.7-0.7l1.7,0.5c-0.3,0.6-0.7,1-1.3,1.4C23.1,21.5,22.3,21.7,21.5,21.7z M23.4,17.2c0-0.6-0.3-1-0.6-1.4
	c-0.4-0.3-0.8-0.5-1.3-0.5c-0.3,0-0.5,0-0.7,0.1c-0.2,0.1-0.4,0.2-0.6,0.4c-0.2,0.2-0.3,0.4-0.4,0.6c-0.1,0.2-0.2,0.5-0.2,0.8
	L23.4,17.2L23.4,17.2z"/>
<path class="st1" d="M19,11.7h5v1.3h-5V11.7z"/>
</svg>
