<?xml version="1.0" encoding="utf-8"?>
<!-- Generator: Adobe Illustrator 26.0.3, SVG Export Plug-In . SVG Version: 6.00 Build 0)  -->
<svg version="1.1" id="Layer_1" xmlns="http://www.w3.org/2000/svg" xmlns:xlink="http://www.w3.org/1999/xlink" x="0px" y="0px"
	 viewBox="0 0 32 32" style="enable-background:new 0 0 32 32;" xml:space="preserve">
<style type="text/css">
	.st0{fill:#020203;}
	.st1{fill:#FFFFFF;}
</style>
<path class="st0" d="M1.4,23V9c0-4.2,3.4-7.6,7.6-7.6l13.9,0c4.2,0,7.6,3.4,7.6,7.6V23c0,4.2-3.4,7.6-7.6,7.6l-13.9,0
	C4.9,30.6,1.4,27.2,1.4,23z"/>
<path class="st1" d="M15.9,7.8c-4.5,0-8.2,3.7-8.2,8.2s3.7,8.2,8.2,8.2c4.5,0,8.2-3.7,8.2-8.2C24.1,11.5,20.4,7.8,15.9,7.8L15.9,7.8
	z M21.3,11.7c0.9,1.2,1.5,2.6,1.5,4.2c-0.3-0.1-1.6-0.3-3.2-0.3c-0.5,0-1,0-1.6,0.1c0-0.1-0.1-0.2-0.1-0.3c-0.1-0.3-0.3-0.7-0.4-1
	C19.9,13.4,21,12,21.3,11.7L21.3,11.7z M15.9,9.1c1.8,0,3.4,0.7,4.6,1.7c-0.2,0.3-1.2,1.6-3.6,2.5c-1.1-2-2.3-3.6-2.6-4
	C14.8,9.1,15.3,9.1,15.9,9.1L15.9,9.1z M12.9,9.7c0.2,0.3,1.4,2,2.5,4c-3,0.8-5.6,0.8-6.3,0.8H9.1C9.5,12.4,11,10.7,12.9,9.7
	L12.9,9.7z M8.9,16c0-0.1,0-0.1,0-0.2c0,0,0.1,0,0.2,0c0.9,0,3.9-0.1,6.9-1c0.2,0.4,0.4,0.7,0.5,1.1c-0.1,0-0.2,0-0.2,0.1
	c-3.5,1.1-5.4,4.1-5.7,4.6C9.6,19.4,8.9,17.8,8.9,16L8.9,16z M15.9,23c-1.6,0-3.1-0.5-4.2-1.4c0.2-0.4,1.6-3,5.4-4.3c0,0,0,0,0,0
	c1,2.5,1.4,4.6,1.5,5.2C17.7,22.8,16.8,23,15.9,23L15.9,23z M19.8,21.7c-0.1-0.5-0.5-2.5-1.3-4.9c0.5-0.1,1-0.1,1.4-0.1
	c1.5,0,2.6,0.3,2.9,0.4C22.4,19,21.3,20.7,19.8,21.7L19.8,21.7z"/>
</svg>
