<?xml version="1.0" encoding="utf-8"?>
<!-- Generator: Adobe Illustrator 26.0.3, SVG Export Plug-In . SVG Version: 6.00 Build 0)  -->
<svg version="1.1" id="Layer_1" xmlns="http://www.w3.org/2000/svg" xmlns:xlink="http://www.w3.org/1999/xlink" x="0px" y="0px"
	 viewBox="0 0 32 32" style="enable-background:new 0 0 32 32;" xml:space="preserve">
<style type="text/css">
	.st0{fill:#020203;}
	.st1{fill:#FFFFFF;}
</style>
<path class="st0" d="M1.2,23.2V9.3c0-4.2,3.4-7.6,7.6-7.6h13.9c4.2,0,7.6,3.4,7.6,7.6l0,13.9c0,4.2-3.4,7.6-7.6,7.6l-13.9,0
	C4.7,30.9,1.2,27.5,1.2,23.2z"/>
<path class="st1" d="M9.7,13.5h2.8v9.1H9.7V13.5z M11.1,9c0.9,0,1.6,0.7,1.6,1.6c0,0.9-0.7,1.6-1.6,1.6c-0.9,0-1.6-0.7-1.6-1.6
	C9.5,9.8,10.2,9,11.1,9"/>
<path class="st1" d="M14.3,13.5H17v1.2h0c0.4-0.7,1.3-1.5,2.7-1.5c2.9,0,3.4,1.9,3.4,4.3v5h-2.8v-4.4c0-1.1,0-2.4-1.5-2.4
	c-1.5,0-1.7,1.1-1.7,2.3v4.5h-2.8V13.5z"/>
</svg>
